<svg width="32" height="32" viewBox="0 0 32 32" fill="none" xmlns="http://www.w3.org/2000/svg">
<g clip-path="url(#clip0_5029_5382)">
<path d="M20.167 8.49993C20.3859 8.28106 20.6457 8.10744 20.9317 7.98899C21.2176 7.87054 21.5241 7.80957 21.8337 7.80957C22.1432 7.80957 22.4497 7.87054 22.7357 7.98899C23.0216 8.10744 23.2815 8.28106 23.5003 8.49993C23.7192 8.7188 23.8928 8.97863 24.0113 9.2646C24.1297 9.55057 24.1907 9.85706 24.1907 10.1666C24.1907 10.4761 24.1297 10.7826 24.0113 11.0686C23.8928 11.3546 23.7192 11.6144 23.5003 11.8333L12.2503 23.0833L7.66699 24.3333L8.91699 19.7499L20.167 8.49993Z" stroke="#1E1E1E" stroke-width="2" stroke-linecap="round" stroke-linejoin="round"/>
</g>
<defs>
<clipPath id="clip0_5029_5382">
<rect width="20" height="20" fill="white" transform="translate(6 6)"/>
</clipPath>
</defs>
</svg>
