<svg width="42" height="43" viewBox="0 0 42 43" fill="none" xmlns="http://www.w3.org/2000/svg">
<circle cx="21" cy="21.5" r="21" fill="#F5E14B"/>
<g clip-path="url(#clip0_5029_5092)">
<path d="M17.501 21.6897H18.9985L18.2497 19.5615L17.501 21.6897Z" fill="#331D1E"/>
<path d="M21 10.5C13.82 10.5 8 15.0902 8 20.7532C8 24.4143 10.4337 27.6304 14.0938 29.4409C13.895 30.1274 12.8137 33.8598 12.7712 34.1536C12.7712 34.1536 12.745 34.3737 12.8875 34.4575C12.9352 34.4815 12.9873 34.4956 13.0406 34.4988C13.0939 34.5021 13.1473 34.4944 13.1975 34.4762C13.6075 34.4187 17.9475 31.374 18.6975 30.8501C19.4604 30.9561 20.2298 31.0083 21 31.0064C28.18 31.0064 34 26.4162 34 20.7532C34 15.0902 28.18 10.5 21 10.5ZM14.5662 19.1615C14.55 20.6119 14.5787 22.1374 14.555 23.5653C14.5475 24.0217 14.285 24.158 13.93 24.2881C13.8899 24.3022 13.8467 24.3053 13.805 24.2968C13.3987 24.2168 13.075 24.0717 13.065 23.5666C13.0363 22.1399 13.0738 20.6119 13.0538 19.1615C12.71 19.1477 12.22 19.1752 11.9012 19.1615C11.4587 19.1327 11.1513 18.8514 11.17 18.4325C11.1888 18.0136 11.4125 17.7123 11.9088 17.7048C13.0813 17.6872 14.5338 17.6872 15.7063 17.7048C16.2063 17.7123 16.4288 18.0148 16.4438 18.4325C16.4588 18.8501 16.1562 19.1327 15.715 19.1615C15.4 19.1752 14.9112 19.1477 14.5662 19.1615ZM20.8663 24.2193C20.7163 24.2875 20.5535 24.3229 20.3888 24.3231C20.0763 24.3231 19.8375 24.198 19.7638 23.9917L19.3888 23.0189H17.1062L16.7312 23.9917C16.6587 24.1955 16.42 24.3231 16.1062 24.3231C15.9419 24.3231 15.7795 24.2877 15.63 24.2193C15.4225 24.1243 15.2238 23.8617 15.4513 23.154L17.25 18.43C17.3254 18.2219 17.4605 18.0407 17.6384 17.909C17.8163 17.7774 18.029 17.7011 18.25 17.6897C18.4708 17.7023 18.6831 17.7792 18.8608 17.9109C19.0385 18.0427 19.1738 18.2235 19.25 18.4312L21.0425 23.1527C21.2712 23.8617 21.0725 24.1293 20.8663 24.2193ZM24.6562 24.2193H22.25C22.0636 24.223 21.8834 24.1527 21.7487 24.0238C21.614 23.8949 21.5358 23.718 21.5312 23.5316V18.44C21.5392 18.2422 21.6234 18.0552 21.7661 17.9181C21.9088 17.781 22.099 17.7044 22.2969 17.7044C22.4947 17.7044 22.6849 17.781 22.8276 17.9181C22.9704 18.0552 23.0545 18.2422 23.0625 18.44V22.8476H24.6562C24.75 22.8419 24.844 22.8555 24.9323 22.8875C25.0206 22.9195 25.1015 22.9693 25.1699 23.0337C25.2383 23.0981 25.2928 23.1758 25.33 23.2621C25.3673 23.3484 25.3865 23.4414 25.3865 23.5353C25.3865 23.6293 25.3673 23.7223 25.33 23.8085C25.2928 23.8948 25.2383 23.9725 25.1699 24.0369C25.1015 24.1014 25.0206 24.1511 24.9323 24.1831C24.844 24.2151 24.75 24.2287 24.6562 24.223V24.2193ZM30.5312 23.6541C30.5117 23.8021 30.4485 23.9409 30.3497 24.0528C30.2509 24.1646 30.121 24.2445 29.9766 24.2821C29.8321 24.3197 29.6798 24.3133 29.539 24.2638C29.3982 24.2143 29.2754 24.1239 29.1863 24.0042L27.4275 21.6747L27.1675 21.9348V23.5716C27.1675 23.7706 27.0885 23.9614 26.9478 24.1021C26.8072 24.2428 26.6164 24.3218 26.4175 24.3218C26.2186 24.3218 26.0278 24.2428 25.8872 24.1021C25.7465 23.9614 25.6675 23.7706 25.6675 23.5716V18.445C25.6675 18.246 25.7465 18.0552 25.8872 17.9145C26.0278 17.7738 26.2186 17.6947 26.4175 17.6947C26.6164 17.6947 26.8072 17.7738 26.9478 17.9145C27.0885 18.0552 27.1675 18.246 27.1675 18.445V20.053L29.26 17.9598C29.3148 17.9056 29.3798 17.8629 29.4513 17.8342C29.5227 17.8054 29.5992 17.7912 29.6763 17.7923C29.8635 17.7972 30.0424 17.8711 30.1785 17.9999C30.3146 18.1287 30.3984 18.3032 30.4137 18.49C30.4205 18.5733 30.4094 18.6572 30.3811 18.7359C30.3529 18.8146 30.3082 18.8863 30.25 18.9464L28.5375 20.6557L30.3838 23.1027C30.5033 23.2614 30.555 23.4611 30.5275 23.6579L30.5312 23.6541Z" fill="#331D1E"/>
</g>
<defs>
<clipPath id="clip0_5029_5092">
<rect width="26" height="24" fill="white" transform="translate(8 10.5)"/>
</clipPath>
</defs>
</svg>
