<svg width="32" height="32" viewBox="0 0 32 32" fill="none" xmlns="http://www.w3.org/2000/svg">
<path d="M9.33301 11.833H22.6663" stroke="#1E1E1E" stroke-width="1.66667" stroke-linecap="round" stroke-linejoin="round"/>
<path d="M14.333 15.167V20.167" stroke="#1E1E1E" stroke-width="1.66667" stroke-linecap="round" stroke-linejoin="round"/>
<path d="M17.667 15.167V20.167" stroke="#1E1E1E" stroke-width="1.66667" stroke-linecap="round" stroke-linejoin="round"/>
<path d="M10.167 11.833L11.0003 21.833C11.0003 22.275 11.1759 22.699 11.4885 23.0115C11.801 23.3241 12.225 23.4997 12.667 23.4997H19.3337C19.7757 23.4997 20.1996 23.3241 20.5122 23.0115C20.8247 22.699 21.0003 22.275 21.0003 21.833L21.8337 11.833" stroke="#1E1E1E" stroke-width="1.66667" stroke-linecap="round" stroke-linejoin="round"/>
<path d="M13.5 11.8333V9.33333C13.5 9.11232 13.5878 8.90036 13.7441 8.74408C13.9004 8.5878 14.1123 8.5 14.3333 8.5H17.6667C17.8877 8.5 18.0996 8.5878 18.2559 8.74408C18.4122 8.90036 18.5 9.11232 18.5 9.33333V11.8333" stroke="#1E1E1E" stroke-width="1.66667" stroke-linecap="round" stroke-linejoin="round"/>
</svg>
