<svg width="212" height="39" viewBox="0 0 212 39" fill="none" xmlns="http://www.w3.org/2000/svg">
<path d="M8.95058 25.366V1.75437H0.708008V32.5971H24.4008V25.366H8.95058Z" fill="white"/>
<path d="M35.0349 32.5971V8.6165H26.7923V32.5971H35.0349ZM35.0349 6.77184V0.5H26.7923V6.77184H35.0349Z" fill="white"/>
<path d="M53.2293 7.87864C49.9766 7.87864 47.4262 9.09612 45.689 11.1252V8.6165H37.4464V32.5971H45.689V21.8612C45.7629 17.2495 47.7958 15.2942 51.1224 15.2942C53.9685 15.2942 55.0774 16.733 55.0774 20.1641V32.5971H63.3199V18.7252C63.3199 11.4573 60.5847 7.87864 53.2293 7.87864Z" fill="white"/>
<path d="M73.6055 16.4748V0.5H65.363V32.5971H73.6055V26.9524L77.043 22.9311L81.0349 32.5971H90.1276L84.916 19.8689H79.6673L89.3884 8.6165H80.4066L73.6055 16.4748Z" fill="white"/>
<path d="M106.926 33.335C111.916 33.335 118.051 30.4942 118.051 20.6068C118.051 10.7194 111.916 7.87864 106.926 7.87864C104.154 7.87864 101.677 8.69029 99.6812 10.0553V0.5H91.4386V32.5971H99.6812V31.1583C101.677 32.5602 104.154 33.335 106.926 33.335ZM104.745 26.1408C101.899 26.1408 99.6812 24.7019 99.6812 20.6068V20.3117C99.7921 16.4748 101.973 15.0728 104.745 15.0728C107.924 15.0728 109.809 16.733 109.809 20.6068C109.809 24.5175 107.924 26.1408 104.745 26.1408Z" fill="white"/>
<path d="M119.355 32.5971H127.598V22.599C127.672 17.9505 129.779 15.2573 137.134 15.2573V7.87864C132.699 7.87864 129.557 9.42815 127.598 11.7524V8.6165H119.355V32.5971Z" fill="white"/>
<path d="M148.815 33.335C151.55 33.335 154.063 32.5602 156.059 31.1583V32.5971H164.302V8.6165H156.059V10.0553C154.063 8.69029 151.55 7.87864 148.815 7.87864C143.825 7.87864 137.689 10.7194 137.689 20.6068C137.689 30.4942 143.825 33.335 148.815 33.335ZM150.995 26.1408C147.817 26.1408 145.932 24.5175 145.932 20.6068C145.932 16.733 147.817 15.0728 150.995 15.0728C153.842 15.0728 156.059 16.5485 156.059 20.6068C156.059 24.7019 153.842 26.1408 150.995 26.1408Z" fill="white"/>
<path d="M166.345 32.5971H174.587V22.599C174.661 17.9505 176.768 15.2573 184.124 15.2573V7.87864C179.688 7.87864 176.546 9.42815 174.587 11.7524V8.6165H166.345V32.5971Z" fill="white"/>
<path d="M203.049 8.6165V19.0573C202.162 20.0534 200.572 20.4592 198.724 20.4592C194.806 20.4592 193.66 19.2417 193.66 16.9913V8.6165H185.418V17.5816C185.418 24.1485 190.075 27.6903 196.544 27.6903C198.946 27.6903 201.164 27.1738 203.049 26.2883V27.1738C203.049 30.4573 201.792 31.6379 198.539 31.6379C195.841 31.6379 194.548 30.8262 194.178 28.9447H185.898C186.564 35.733 190.223 38.5 198.539 38.5C207.595 38.5 211.291 35.1796 211.291 26.5466V8.6165H203.049Z" fill="white"/>
</svg>