<svg width="43" height="42" viewBox="0 0 43 42" fill="none" xmlns="http://www.w3.org/2000/svg">
<rect x="0.5" width="42" height="42" rx="21" fill="#1877F2"/>
<g clip-path="url(#clip0_5029_4019)">
<path d="M30.5 21C30.5 16.032 26.468 12 21.5 12C16.532 12 12.5 16.032 12.5 21C12.5 25.356 15.596 28.983 19.7 29.82V23.7H17.9V21H19.7V18.75C19.7 17.013 21.113 15.6 22.85 15.6H25.1V18.3H23.3C22.805 18.3 22.4 18.705 22.4 19.2V21H25.1V23.7H22.4V29.955C26.945 29.505 30.5 25.671 30.5 21Z" fill="white"/>
</g>
<defs>
<clipPath id="clip0_5029_4019">
<rect width="18" height="18" fill="white" transform="translate(12.5 12)"/>
</clipPath>
</defs>
</svg>
