<svg width="42" height="42" viewBox="0 0 42 42" fill="none" xmlns="http://www.w3.org/2000/svg">
<rect width="42" height="42" rx="21" fill="#F5F5F5"/>
<g clip-path="url(#clip0_5029_4023)">
<path fill-rule="evenodd" clip-rule="evenodd" d="M21.6461 13.2922C22.5891 12.3814 23.8521 11.8775 25.1631 11.8889C26.4741 11.9003 27.7282 12.4261 28.6552 13.3531C29.5823 14.2802 30.1081 15.5342 30.1195 16.8452C30.1309 18.1562 29.6269 19.4192 28.7161 20.3622L28.706 20.3726L26.2061 22.8725C25.6992 23.3795 25.0892 23.7717 24.4174 24.0222C23.7457 24.2728 23.0279 24.376 22.3127 24.3248C21.5976 24.2736 20.9018 24.0692 20.2726 23.7254C19.6434 23.3816 19.0955 22.9066 18.6661 22.3325C18.3904 21.9639 18.4657 21.4417 18.8342 21.166C19.2028 20.8903 19.725 20.9656 20.0007 21.3342C20.287 21.7169 20.6523 22.0336 21.0717 22.2628C21.4912 22.492 21.955 22.6282 22.4318 22.6624C22.9085 22.6965 23.3871 22.6277 23.8349 22.4607C24.2828 22.2936 24.6894 22.0322 25.0274 21.6942L25.0275 21.6941L27.5221 19.1995C28.1263 18.5713 28.4605 17.7314 28.4529 16.8597C28.4453 15.9857 28.0947 15.1497 27.4767 14.5317C26.8587 13.9136 26.0226 13.5631 25.1486 13.5555C24.2766 13.5479 23.4363 13.8824 22.8081 14.4871L21.3793 15.9076C21.0529 16.2321 20.5252 16.2306 20.2007 15.9042C19.8763 15.5778 19.8778 15.0502 20.2042 14.7257L21.6375 13.3007L21.6461 13.2922Z" fill="#1E1E1E"/>
<path fill-rule="evenodd" clip-rule="evenodd" d="M17.5826 17.9774C18.2544 17.7269 18.9722 17.6237 19.6873 17.6749C20.4025 17.7261 21.0982 17.9305 21.7274 18.2743C22.3566 18.618 22.9045 19.0931 23.334 19.6672C23.6096 20.0358 23.5344 20.558 23.1658 20.8337C22.7973 21.1093 22.275 21.0341 21.9994 20.6655C21.7131 20.2828 21.3478 19.9661 20.9283 19.7369C20.5089 19.5077 20.045 19.3714 19.5683 19.3373C19.0915 19.3031 18.613 19.3719 18.1651 19.539C17.7173 19.7061 17.3106 19.9675 16.9727 20.3055L14.478 22.8002C13.8738 23.4284 13.5396 24.2683 13.5472 25.14C13.5548 26.014 13.9053 26.85 14.5233 27.468C15.1414 28.0861 15.9774 28.4366 16.8514 28.4442C17.7231 28.4518 18.563 28.1176 19.1911 27.5134L20.6107 26.0938C20.9362 25.7683 21.4638 25.7683 21.7893 26.0938C22.1147 26.4192 22.1147 26.9469 21.7893 27.2723L20.3643 28.6973L20.3539 28.7074C19.4109 29.6182 18.1479 30.1222 16.8369 30.1108C15.5259 30.0994 14.2719 29.5736 13.3448 28.6465C12.4178 27.7195 11.892 26.4654 11.8806 25.1544C11.8692 23.8435 12.3731 22.5805 13.2839 21.6374L13.2941 21.6271L15.794 19.1272C15.7939 19.1273 15.794 19.1272 15.794 19.1272C16.3008 18.6202 16.9109 18.228 17.5826 17.9774Z" fill="#1E1E1E"/>
</g>
<defs>
<clipPath id="clip0_5029_4023">
<rect width="20" height="20" fill="white" transform="translate(11 11)"/>
</clipPath>
</defs>
</svg>
