<svg width="66" height="66" viewBox="0 0 66 66" fill="none" xmlns="http://www.w3.org/2000/svg">
<g clip-path="url(#clip0_5029_4880)">
<g clip-path="url(#clip1_5029_4880)">
<path d="M61.3019 4.71212C59.8116 3.21669 58.0421 2.03041 56.0946 1.22105C54.1471 0.411695 52.0596 -0.00488281 49.9515 -0.00488281C47.8435 -0.00488281 45.756 0.411695 43.8085 1.22105C41.861 2.03041 40.0915 3.21669 38.6012 4.71212L26.3822 16.9875C27.3617 16.8324 28.3516 16.7529 29.3432 16.7499C32.1467 16.7448 34.9192 17.3388 37.476 18.4922L44.9278 11.0181C46.2876 9.76185 48.0794 9.08222 49.9278 9.12164C51.7761 9.16107 53.5375 9.91649 54.8428 11.2296C56.1482 12.5427 56.8962 14.3116 56.9301 16.1656C56.964 18.0196 56.2811 19.8148 55.0247 21.175L41.5819 34.6581C40.2371 36.0014 38.4165 36.7555 36.5186 36.7555C34.6207 36.7555 32.8001 36.0014 31.4554 34.6581L25.1781 40.9542C26.6678 42.4508 28.437 43.6381 30.3846 44.4482C32.3323 45.2583 34.42 45.6753 36.5285 45.6753C38.6369 45.6753 40.7247 45.2583 42.6723 44.4482C44.6199 43.6381 46.3892 42.4508 47.8789 40.9542L61.3019 27.4711C62.7929 25.9763 63.9756 24.2015 64.7825 22.2481C65.5895 20.2948 66.0048 18.2011 66.0048 16.0867C66.0048 13.9722 65.5895 11.8785 64.7825 9.92517C63.9756 7.9718 62.7929 6.19702 61.3019 4.70222V4.71212Z" fill="white"/>
<path d="M4.69801 61.2878C6.18834 62.7833 7.95781 63.9695 9.90534 64.7789C11.8529 65.5883 13.9403 66.0048 16.0484 66.0048C18.1565 66.0048 20.2439 65.5883 22.1914 64.7789C24.139 63.9695 25.9084 62.7833 27.3988 61.2878L39.6177 49.0223C38.6377 49.1733 37.6482 49.2527 36.6567 49.2599C33.8571 49.2585 31.0892 48.6648 28.5338 47.5176L21.1116 54.9917C19.7636 56.3399 17.9367 57.0958 16.033 57.093C14.1293 57.0902 12.3046 56.329 10.9605 54.9769C9.61629 53.6248 8.86271 51.7924 8.86548 49.883C8.86826 47.9736 9.62717 46.1435 10.9753 44.7953L24.4181 31.3517C25.082 30.6831 25.871 30.1525 26.7399 29.7904C27.6088 29.4284 28.5404 29.242 29.4813 29.242C30.4222 29.242 31.3538 29.4284 32.2227 29.7904C33.0916 30.1525 33.8806 30.6831 34.5446 31.3517L40.8218 25.0457C39.3315 23.5503 37.562 22.364 35.6145 21.5547C33.667 20.7453 31.5795 20.3287 29.4715 20.3287C27.3634 20.3287 25.2759 20.7453 23.3284 21.5547C21.3809 22.364 19.6114 23.5503 18.1211 25.0457L4.69801 38.5289C3.20705 40.0237 2.02432 41.7984 1.21739 43.7518C0.410449 45.7052 -0.00488281 47.7989 -0.00488281 49.9133C-0.00488281 52.0277 0.410449 54.1214 1.21739 56.0748C2.02432 58.0282 3.20705 59.8029 4.69801 61.2977V61.2878Z" fill="white"/>
</g>
</g>
<defs>
<clipPath id="clip0_5029_4880">
<rect width="66" height="66" fill="white"/>
</clipPath>
<clipPath id="clip1_5029_4880">
<rect width="66" height="66" fill="white"/>
</clipPath>
</defs>
</svg>
