<svg width="211" height="38" viewBox="0 0 211 38" fill="none" xmlns="http://www.w3.org/2000/svg">
<path d="M8.24257 24.866V1.25437H0V32.0971H23.6928V24.866H8.24257Z" fill="white"/>
<path d="M34.3269 32.0971V8.1165H26.0843V32.0971H34.3269ZM34.3269 6.27184V0H26.0843V6.27184H34.3269Z" fill="white"/>
<path d="M52.5213 7.37864C49.2686 7.37864 46.7182 8.59612 44.981 10.6252V8.1165H36.7384V32.0971H44.981V21.3612C45.0549 16.7495 47.0878 14.7942 50.4144 14.7942C53.2605 14.7942 54.3694 16.233 54.3694 19.6641V32.0971H62.6119V18.2252C62.6119 10.9573 59.8767 7.37864 52.5213 7.37864Z" fill="white"/>
<path d="M72.8975 15.9748V0H64.655V32.0971H72.8975V26.4524L76.335 22.4311L80.3269 32.0971H89.4196L84.208 19.3689H78.9593L88.6804 8.1165H79.6986L72.8975 15.9748Z" fill="white"/>
<path d="M106.218 32.835C111.208 32.835 117.343 29.9942 117.343 20.1068C117.343 10.2194 111.208 7.37864 106.218 7.37864C103.446 7.37864 100.969 8.19029 98.9732 9.55534V0H90.7306V32.0971H98.9732V30.6583C100.969 32.0602 103.446 32.835 106.218 32.835ZM104.037 25.6408C101.191 25.6408 98.9732 24.2019 98.9732 20.1068V19.8117C99.0841 15.9748 101.265 14.5728 104.037 14.5728C107.216 14.5728 109.101 16.233 109.101 20.1068C109.101 24.0175 107.216 25.6408 104.037 25.6408Z" fill="white"/>
<path d="M118.647 32.0971H126.89V22.099C126.964 17.4505 129.071 14.7573 136.426 14.7573V7.37864C131.991 7.37864 128.849 8.92815 126.89 11.2524V8.1165H118.647V32.0971Z" fill="white"/>
<path d="M148.107 32.835C150.842 32.835 153.355 32.0602 155.351 30.6583V32.0971H163.594V8.1165H155.351V9.55534C153.355 8.19029 150.842 7.37864 148.107 7.37864C143.117 7.37864 136.981 10.2194 136.981 20.1068C136.981 29.9942 143.117 32.835 148.107 32.835ZM150.287 25.6408C147.109 25.6408 145.224 24.0175 145.224 20.1068C145.224 16.233 147.109 14.5728 150.287 14.5728C153.133 14.5728 155.351 16.0485 155.351 20.1068C155.351 24.2019 153.133 25.6408 150.287 25.6408Z" fill="white"/>
<path d="M165.637 32.0971H173.879V22.099C173.953 17.4505 176.06 14.7573 183.416 14.7573V7.37864C178.98 7.37864 175.838 8.92815 173.879 11.2524V8.1165H165.637V32.0971Z" fill="white"/>
<path d="M202.341 8.1165V18.5573C201.454 19.5534 199.864 19.9592 198.016 19.9592C194.098 19.9592 192.952 18.7417 192.952 16.4913V8.1165H184.71V17.0816C184.71 23.6485 189.367 27.1903 195.836 27.1903C198.238 27.1903 200.456 26.6738 202.341 25.7883V26.6738C202.341 29.9573 201.084 31.1379 197.831 31.1379C195.133 31.1379 193.84 30.3262 193.47 28.4447H185.19C185.856 35.233 189.515 38 197.831 38C206.887 38 210.583 34.6796 210.583 26.0466V8.1165H202.341Z" fill="white"/>
</svg>
